<mxfile host="app.diagrams.net" modified="2022-01-27T02:38:20.728Z" agent="5.0 (Windows NT 10.0; Win64; x64) AppleWebKit/537.36 (KHTML, like Gecko) Chrome/97.0.4692.99 Safari/537.36" etag="kElH5dRFbjxqTfFr0Yze" version="16.4.7" type="github">
  <diagram id="AsVXoxYifE-prMt1upEp" name="Page-1">
    <mxGraphModel dx="1038" dy="547" grid="1" gridSize="10" guides="1" tooltips="1" connect="1" arrows="1" fold="1" page="1" pageScale="1" pageWidth="827" pageHeight="1169" math="0" shadow="0">
      <root>
        <mxCell id="0" />
        <mxCell id="1" parent="0" />
        <mxCell id="ftRIKDAcJ2_aNbuLNI0B-2" value="前端管理模块" style="rounded=1;whiteSpace=wrap;html=1;" vertex="1" parent="1">
          <mxGeometry x="40" y="120" width="220" height="50" as="geometry" />
        </mxCell>
        <mxCell id="ftRIKDAcJ2_aNbuLNI0B-5" value="删除接口" style="rounded=1;whiteSpace=wrap;html=1;" vertex="1" parent="1">
          <mxGeometry x="140" y="20" width="200" height="40" as="geometry" />
        </mxCell>
        <mxCell id="ftRIKDAcJ2_aNbuLNI0B-9" value="上传接口" style="swimlane;startSize=30;" vertex="1" parent="1">
          <mxGeometry x="430" y="20" width="310" height="270" as="geometry">
            <mxRectangle x="290" y="170" width="50" height="40" as="alternateBounds" />
          </mxGeometry>
        </mxCell>
        <mxCell id="ftRIKDAcJ2_aNbuLNI0B-20" style="edgeStyle=orthogonalEdgeStyle;rounded=0;orthogonalLoop=1;jettySize=auto;html=1;exitX=0.5;exitY=1;exitDx=0;exitDy=0;entryX=0.5;entryY=0;entryDx=0;entryDy=0;" edge="1" parent="ftRIKDAcJ2_aNbuLNI0B-9" source="ftRIKDAcJ2_aNbuLNI0B-7" target="ftRIKDAcJ2_aNbuLNI0B-8">
          <mxGeometry relative="1" as="geometry" />
        </mxCell>
        <mxCell id="ftRIKDAcJ2_aNbuLNI0B-7" value="解压存储" style="rounded=1;whiteSpace=wrap;html=1;" vertex="1" parent="ftRIKDAcJ2_aNbuLNI0B-9">
          <mxGeometry x="30" y="40" width="100" height="40" as="geometry" />
        </mxCell>
        <mxCell id="ftRIKDAcJ2_aNbuLNI0B-21" style="edgeStyle=orthogonalEdgeStyle;rounded=0;orthogonalLoop=1;jettySize=auto;html=1;exitX=0.5;exitY=1;exitDx=0;exitDy=0;entryX=0.5;entryY=0;entryDx=0;entryDy=0;" edge="1" parent="ftRIKDAcJ2_aNbuLNI0B-9" source="ftRIKDAcJ2_aNbuLNI0B-8" target="ftRIKDAcJ2_aNbuLNI0B-17">
          <mxGeometry relative="1" as="geometry" />
        </mxCell>
        <mxCell id="ftRIKDAcJ2_aNbuLNI0B-8" value="放入系统相对路径" style="rounded=1;whiteSpace=wrap;html=1;" vertex="1" parent="ftRIKDAcJ2_aNbuLNI0B-9">
          <mxGeometry x="30" y="110" width="100" height="40" as="geometry" />
        </mxCell>
        <mxCell id="ftRIKDAcJ2_aNbuLNI0B-23" style="edgeStyle=orthogonalEdgeStyle;rounded=0;orthogonalLoop=1;jettySize=auto;html=1;exitX=0.5;exitY=1;exitDx=0;exitDy=0;" edge="1" parent="ftRIKDAcJ2_aNbuLNI0B-9" source="ftRIKDAcJ2_aNbuLNI0B-11" target="ftRIKDAcJ2_aNbuLNI0B-14">
          <mxGeometry relative="1" as="geometry" />
        </mxCell>
        <mxCell id="ftRIKDAcJ2_aNbuLNI0B-11" value="编译并加载groovy脚本代码" style="rounded=1;whiteSpace=wrap;html=1;" vertex="1" parent="ftRIKDAcJ2_aNbuLNI0B-9">
          <mxGeometry x="170" y="40" width="100" height="40" as="geometry" />
        </mxCell>
        <mxCell id="ftRIKDAcJ2_aNbuLNI0B-14" value="调用内部路径定义函数，注册全局路径" style="rounded=1;whiteSpace=wrap;html=1;" vertex="1" parent="ftRIKDAcJ2_aNbuLNI0B-9">
          <mxGeometry x="170" y="115" width="100" height="40" as="geometry" />
        </mxCell>
        <mxCell id="ftRIKDAcJ2_aNbuLNI0B-22" style="edgeStyle=orthogonalEdgeStyle;rounded=0;orthogonalLoop=1;jettySize=auto;html=1;exitX=1;exitY=0.5;exitDx=0;exitDy=0;entryX=0;entryY=0.5;entryDx=0;entryDy=0;" edge="1" parent="ftRIKDAcJ2_aNbuLNI0B-9" source="ftRIKDAcJ2_aNbuLNI0B-17" target="ftRIKDAcJ2_aNbuLNI0B-11">
          <mxGeometry relative="1" as="geometry" />
        </mxCell>
        <mxCell id="ftRIKDAcJ2_aNbuLNI0B-17" value="卸载旧代码" style="rounded=1;whiteSpace=wrap;html=1;" vertex="1" parent="ftRIKDAcJ2_aNbuLNI0B-9">
          <mxGeometry x="30" y="180" width="100" height="40" as="geometry" />
        </mxCell>
        <mxCell id="ftRIKDAcJ2_aNbuLNI0B-18" value="启动模块" style="swimlane;" vertex="1" parent="1">
          <mxGeometry x="60" y="380" width="320" height="330" as="geometry" />
        </mxCell>
        <mxCell id="ftRIKDAcJ2_aNbuLNI0B-25" style="edgeStyle=orthogonalEdgeStyle;rounded=0;orthogonalLoop=1;jettySize=auto;html=1;exitX=0.5;exitY=1;exitDx=0;exitDy=0;entryX=0.5;entryY=0;entryDx=0;entryDy=0;" edge="1" parent="ftRIKDAcJ2_aNbuLNI0B-18" source="ftRIKDAcJ2_aNbuLNI0B-19" target="ftRIKDAcJ2_aNbuLNI0B-24">
          <mxGeometry relative="1" as="geometry" />
        </mxCell>
        <mxCell id="ftRIKDAcJ2_aNbuLNI0B-19" value="加载指定路径下所有groovy脚本" style="rounded=1;whiteSpace=wrap;html=1;" vertex="1" parent="ftRIKDAcJ2_aNbuLNI0B-18">
          <mxGeometry x="30" y="40" width="120" height="60" as="geometry" />
        </mxCell>
        <mxCell id="ftRIKDAcJ2_aNbuLNI0B-24" value="" style="rounded=1;whiteSpace=wrap;html=1;" vertex="1" parent="ftRIKDAcJ2_aNbuLNI0B-18">
          <mxGeometry x="30" y="120" width="120" height="60" as="geometry" />
        </mxCell>
      </root>
    </mxGraphModel>
  </diagram>
</mxfile>
